<svg width="179" height="54" viewBox="0 0 179 54" fill="none" xmlns="http://www.w3.org/2000/svg">
<g opacity="0.5" clip-path="url(#clip0_402_125)">
<path opacity="0.8" d="M27.0395 53.2649C35.1055 53.2649 41.6445 50.5699 41.6445 47.2449C41.6445 43.9209 35.1055 41.226 27.0395 41.226C18.9735 41.226 12.4355 43.9209 12.4355 47.2459C12.4355 50.5699 18.9735 53.2649 27.0395 53.2649Z" fill="#EDEDED"/>
<path opacity="0.8" d="M39.2501 45.597C47.1901 45.597 53.6281 43.292 53.6281 40.449C53.6281 37.606 47.1911 35.301 39.2501 35.301C31.3091 35.301 24.8701 37.606 24.8701 40.449C24.8701 43.292 31.3091 45.597 39.2501 45.597Z" fill="#EDEDED"/>
<path opacity="0.8" d="M14.379 45.597C22.319 45.597 28.757 43.292 28.757 40.449C28.757 37.606 22.319 35.301 14.378 35.301C6.439 35.3 0 37.606 0 40.449C0 43.292 6.437 45.597 14.379 45.597Z" fill="#EDEDED"/>
<path d="M27.1023 30.968C36.1393 30.968 43.4663 24.035 43.4663 15.484C43.4663 6.932 36.1393 0 27.1023 0C18.0643 0 10.7383 6.932 10.7383 15.484C10.7383 24.035 18.0643 30.968 27.1023 30.968Z" fill="url(#paint0_radial_402_125)"/>
<path d="M76.3216 24.182C81.5576 24.182 82.4256 22.418 82.4256 20.696V20.5C82.4256 18.428 80.8436 17.476 76.9236 17.406L75.1736 17.378C73.0456 17.336 72.7656 16.93 72.7656 16.482C72.7656 16.034 72.9476 15.586 75.4676 15.586H75.6916C78.4216 15.586 78.6316 16.44 78.7016 16.832H82.0896V16.692C82.0896 15.124 80.9696 13.402 76.0416 13.402H75.0756C70.3296 13.402 69.4056 15.026 69.4056 16.58V16.706C69.4056 18.33 70.5956 19.646 74.4876 19.758L76.2796 19.8C78.6876 19.87 79.0096 20.248 79.0096 20.85C79.0096 21.41 78.7016 21.956 75.9576 21.956H75.7616C73.0736 21.956 72.7096 20.934 72.6676 20.304H69.2656V20.458C69.2656 21.83 69.8956 24.182 75.3556 24.182H76.3216ZM91.9096 20.528C95.6336 20.528 96.7676 18.974 96.7676 17.112V16.972C96.7676 15.068 95.6616 13.584 91.9096 13.584H84.0976V24H87.3596V20.528H91.9096ZM87.3596 15.95H91.8536C92.9036 15.95 93.3656 16.342 93.3656 17.056V17.098C93.3656 17.812 92.8756 18.19 91.8536 18.19H87.3596V15.95ZM98.4116 24H101.674V19.898H108.674V24H111.936V13.584H108.674V17.378H101.674V13.584H98.4116V24ZM114.093 13.584V24H125.209V21.578H117.313V19.87H124.887V17.49H117.313V15.95H125.069V13.584H114.093ZM130.384 15.95H135.326C136.278 15.95 136.642 16.412 136.642 16.958V16.972C136.642 17.546 136.264 17.994 135.326 17.994H130.384V15.95ZM130.384 20.304H134.64C136.25 20.304 136.81 20.864 136.81 22.138V23.342C136.81 23.72 136.866 23.874 136.964 24H140.282V23.93C140.184 23.762 140.086 23.496 140.086 22.656V21.13C140.086 19.786 139.176 19.044 138.112 18.736C138.798 18.512 140.044 17.952 140.044 16.454V16.286C140.044 14.788 138.994 13.584 135.522 13.584H127.122V24H130.384V20.304ZM148.844 13.402C142.25 13.402 141.508 16.692 141.508 18.554V18.974C141.508 20.808 142.25 24.182 148.844 24.182H149.446C156.012 24.182 156.768 20.808 156.768 18.974V18.554C156.768 16.692 155.998 13.402 149.446 13.402H148.844ZM153.352 18.848C153.352 20.052 152.638 21.648 149.138 21.648C145.61 21.648 144.924 20.01 144.924 18.82V18.652C144.924 17.462 145.554 15.922 149.138 15.922C152.666 15.922 153.352 17.462 153.352 18.652V18.848ZM161.76 13.584H158.498V24H161.76V13.584ZM163.911 24H170.827C176.917 24 178.163 21.172 178.163 18.932V18.512C178.163 16.174 176.847 13.584 170.813 13.584H163.911V24ZM167.173 16.048H170.561C174.313 16.048 174.747 17.658 174.747 18.722V18.806C174.747 19.87 174.257 21.494 170.561 21.494H167.173V16.048ZM76.6716 40.154C82.0056 40.154 83.0696 36.598 83.0696 34.638V29.584H79.8076V34.442C79.8076 35.786 79.1916 37.452 76.3916 37.452C73.5496 37.452 72.9476 35.786 72.9476 34.442V29.584H69.6716V34.638C69.6716 36.598 70.5816 40.154 76.1676 40.154H76.6716ZM85.0956 29.584V40H88.3156V33.098L95.3856 40H98.6056V29.584H95.3856V36.136L88.7356 29.584H85.0956ZM104.026 29.584H100.764V40H104.026V29.584ZM114.689 40L119.729 29.584H116.341L112.743 37.242L108.907 29.584H105.211L110.629 40H114.689ZM120.915 29.584V40H132.031V37.578H124.135V35.87H131.709V33.49H124.135V31.95H131.891V29.584H120.915ZM137.206 31.95H142.148C143.1 31.95 143.464 32.412 143.464 32.958V32.972C143.464 33.546 143.086 33.994 142.148 33.994H137.206V31.95ZM137.206 36.304H141.462C143.072 36.304 143.632 36.864 143.632 38.138V39.342C143.632 39.72 143.688 39.874 143.786 40H147.104V39.93C147.006 39.762 146.908 39.496 146.908 38.656V37.13C146.908 35.786 145.998 35.044 144.934 34.736C145.62 34.512 146.866 33.952 146.866 32.454V32.286C146.866 30.788 145.816 29.584 142.344 29.584H133.944V40H137.206V36.304ZM155.274 40.182C160.51 40.182 161.378 38.418 161.378 36.696V36.5C161.378 34.428 159.796 33.476 155.876 33.406L154.126 33.378C151.998 33.336 151.718 32.93 151.718 32.482C151.718 32.034 151.9 31.586 154.42 31.586H154.644C157.374 31.586 157.584 32.44 157.654 32.832H161.042V32.692C161.042 31.124 159.922 29.402 154.994 29.402H154.028C149.282 29.402 148.358 31.026 148.358 32.58V32.706C148.358 34.33 149.548 35.646 153.44 35.758L155.232 35.8C157.64 35.87 157.962 36.248 157.962 36.85C157.962 37.41 157.654 37.956 154.91 37.956H154.714C152.026 37.956 151.662 36.934 151.62 36.304H148.218V36.458C148.218 37.83 148.848 40.182 154.308 40.182H155.274ZM163.05 29.584V40H174.166V37.578H166.27V35.87H173.844V33.49H166.27V31.95H174.026V29.584H163.05Z" fill="#FBFBFB"/>
</g>
<defs>
<radialGradient id="paint0_radial_402_125" cx="0" cy="0" r="1" gradientUnits="userSpaceOnUse" gradientTransform="translate(27.2023 15.444) rotate(-2.57994) scale(16.3381 15.4634)">
<stop offset="0.25" stop-color="#EDEDED"/>
<stop offset="1" stop-color="#B9B1B1"/>
</radialGradient>
<clipPath id="clip0_402_125">
<rect width="179" height="54" fill="white"/>
</clipPath>
</defs>
</svg>
