<svg width="190" height="40" viewBox="0 0 190 40" fill="none" xmlns="http://www.w3.org/2000/svg">
<g opacity="0.5" clip-path="url(#clip0_403_241)">
<path d="M34.9079 10.4206L17.8176 19.999L0 10.4206L17.8176 0.842041L34.9079 10.4206Z" fill="white"/>
<path d="M34.9066 10.4204V29.5774L17.8164 39.1577V19.9989L34.9066 10.4204Z" fill="#B9B1B1"/>
<path d="M0 10.4204V29.5774L17.8176 39.1577V19.9989L0 10.4204Z" fill="#EDEDED"/>
<path d="M27.8274 14.3076L17.6704 19.999L7.08301 14.3076L17.6704 8.61438L27.8274 14.3076Z" fill="#D9D9D9"/>
<path d="M27.827 14.3073V25.6918L17.6699 31.3833V19.9986L27.827 14.3073Z" fill="#958989"/>
<path d="M7.08301 14.3073V25.6918L17.6704 31.3833V19.9986L7.08301 14.3073Z" fill="#C7C7C7"/>
<path d="M64.41 9.44924C64.4547 9.40863 64.5056 9.37861 64.5613 9.35918C64.6177 9.33976 64.677 9.33005 64.7362 9.33358H67.7604C67.8196 9.32917 67.8807 9.33712 67.9371 9.35654C67.9937 9.37596 68.0446 9.40774 68.0875 9.45013C68.1303 9.49162 68.1631 9.54194 68.1831 9.59668C68.2049 9.65142 68.2114 9.70969 68.2059 9.76708V29.9092C68.2104 29.9675 68.204 30.0267 68.1831 30.0814C68.1631 30.1361 68.1303 30.1864 68.0875 30.228C68.0446 30.2694 67.9937 30.3003 67.9371 30.3215C67.8816 30.341 67.8196 30.3489 67.7604 30.3445H64.7362C64.677 30.3489 64.6159 30.3428 64.5594 30.3233C64.503 30.3039 64.4511 30.2721 64.4091 30.2298C64.3663 30.1882 64.3335 30.1379 64.3134 30.0832C64.2935 30.0284 64.2852 29.9692 64.2907 29.911V9.76619C64.2871 9.70793 64.297 9.65054 64.3171 9.59756C64.3372 9.54283 64.37 9.49338 64.4091 9.45101L64.41 9.44924Z" fill="white"/>
<path d="M73.9789 29.7267C72.8302 29.0907 71.8781 28.1684 71.225 27.0585C70.5611 25.9203 70.2119 24.6359 70.2119 23.3314C70.2119 22.0267 70.5611 20.7424 71.225 19.6034C71.8871 18.4943 72.842 17.5737 73.9925 16.9325C75.1429 16.2929 76.4471 15.9546 77.7768 15.9546C79.1063 15.9546 80.4105 16.2911 81.5611 16.9325C82.7115 17.5737 83.6665 18.4943 84.3285 19.6034C84.9923 20.7415 85.3398 22.0258 85.3398 23.3314C85.3398 24.6368 84.9906 25.9203 84.3285 27.0585C83.3217 28.7304 81.6655 29.9505 79.7267 30.4508C77.7868 30.9511 75.7196 30.6895 73.978 29.7249H73.9835L73.9789 29.7267ZM80.4578 26.1C81.1909 25.3645 81.5583 24.4404 81.5583 23.333C81.5583 22.2258 81.1927 21.3035 80.4578 20.5661C80.1086 20.2183 79.6929 19.9425 79.231 19.753C78.7689 19.5637 78.2742 19.4659 77.7731 19.4641C77.2721 19.4641 76.7755 19.5584 76.3134 19.7451C75.8515 19.9328 75.4331 20.2067 75.0839 20.5511C74.3591 21.277 73.9962 22.2038 73.9962 23.333C73.9962 24.4624 74.3591 25.3865 75.0839 26.115C75.4331 26.4611 75.8524 26.7351 76.3134 26.921C76.7755 27.1087 77.2721 27.2029 77.7731 27.2011C78.2742 27.2011 78.7698 27.1016 79.231 26.9123C79.6929 26.7228 80.1086 26.4463 80.4578 26.1Z" fill="white"/>
<path d="M96.2279 26.8726C96.747 26.6258 97.227 26.313 97.6596 25.9411C97.7015 25.8961 97.7525 25.8609 97.8091 25.8371C97.8655 25.8134 97.9265 25.7984 97.9884 25.7984C98.0513 25.7948 98.1123 25.808 98.1707 25.8318C98.2289 25.8574 98.2781 25.8944 98.3163 25.9411L100.136 27.604C100.181 27.6446 100.219 27.6939 100.244 27.7468C100.268 27.8015 100.284 27.8588 100.285 27.9205C100.287 27.9734 100.277 28.0262 100.257 28.0756C100.235 28.1249 100.206 28.1698 100.166 28.2069C99.4712 28.9895 98.606 29.6151 97.6314 30.0399C96.6304 30.4815 95.5412 30.707 94.4399 30.6991C93.1183 30.7088 91.8204 30.3748 90.6819 29.735C89.5416 29.0935 88.6035 28.1698 87.965 27.0577C87.3202 25.912 86.9805 24.6306 86.9805 23.3281C86.9805 22.0256 87.3183 20.7441 87.965 19.5985C88.8831 18.0298 90.3823 16.8525 92.1638 16.3007C93.9445 15.7472 95.8754 15.861 97.5741 16.6171C98.5367 17.0489 99.391 17.6729 100.079 18.4502C100.117 18.4872 100.149 18.5321 100.17 18.5815C100.19 18.6308 100.2 18.6846 100.2 18.7366C100.198 18.7957 100.185 18.8556 100.159 18.9102C100.132 18.9649 100.098 19.0125 100.051 19.053L98.2317 20.745C98.1952 20.7865 98.1488 20.8208 98.0977 20.8464C98.0467 20.8702 97.9903 20.8851 97.9338 20.8896C97.8655 20.8842 97.798 20.8667 97.7361 20.8385C97.6751 20.8094 97.6205 20.7679 97.575 20.7168C97.146 20.3476 96.6695 20.0347 96.1577 19.7854C95.6505 19.5579 95.0939 19.4434 94.5328 19.4548C93.439 19.4548 92.54 19.8224 91.8341 20.5582C91.13 21.2941 90.7767 22.2168 90.7748 23.3264C90.7748 24.4359 91.1283 25.3586 91.8341 26.0945C92.54 26.8304 93.4408 27.1978 94.5328 27.1978C95.1167 27.2119 95.6969 27.1 96.2305 26.8708H96.227L96.2279 26.8726Z" fill="white"/>
<path d="M116.873 30.0841C116.873 30.258 116.755 30.3428 116.515 30.3428H113.23C113.123 30.3489 113.019 30.3286 112.924 30.2826C112.83 30.2376 112.75 30.1688 112.692 30.0849L108.364 24.5595L106.331 26.6292V29.9092C106.336 29.9675 106.33 30.0266 106.31 30.0814C106.288 30.1361 106.257 30.1855 106.211 30.228C106.168 30.2694 106.116 30.3003 106.06 30.3215C106.003 30.341 105.937 30.3459 105.882 30.3445H102.835C102.793 30.3445 102.714 30.3428 102.656 30.3215C102.599 30.3021 102.548 30.2703 102.504 30.228C102.461 30.1855 102.43 30.1361 102.408 30.0814C102.388 30.0266 102.38 29.9675 102.384 29.9092V9.76533C102.38 9.70706 102.388 9.64967 102.408 9.59493C102.43 9.54018 102.461 9.49074 102.504 9.45013C102.547 9.40863 102.599 9.37773 102.656 9.35654C102.712 9.33712 102.773 9.32917 102.833 9.33358H105.88C105.941 9.32917 106.002 9.33712 106.058 9.35654C106.115 9.37596 106.166 9.40775 106.209 9.45013C106.252 9.49163 106.286 9.54195 106.307 9.59493C106.327 9.64967 106.335 9.70794 106.331 9.76533V22.0565L111.707 16.472C111.773 16.3979 111.854 16.3386 111.947 16.2981C112.04 16.2574 112.14 16.2389 112.243 16.2415H115.677C115.776 16.2372 115.876 16.2628 115.961 16.314C115.993 16.3334 116.022 16.3625 116.04 16.3943C116.059 16.4261 116.067 16.4632 116.067 16.5003C116.053 16.6018 116 16.6954 115.916 16.759L110.753 22.083L116.786 29.8262C116.844 29.9004 116.875 29.9914 116.873 30.0841Z" fill="white"/>
<path d="M126.966 16.4037C127.006 16.4468 127.036 16.4971 127.056 16.5508C127.074 16.6054 127.082 16.6627 127.077 16.7209V18.9574C127.082 19.0147 127.075 19.0746 127.056 19.1292C127.035 19.1838 127.003 19.2332 126.96 19.2754C126.917 19.3169 126.865 19.3476 126.808 19.3688C126.752 19.3882 126.69 19.3961 126.63 19.39H124.54V29.9123C124.545 29.9695 124.538 30.0294 124.516 30.0841C124.497 30.1386 124.464 30.188 124.42 30.2303C124.378 30.2716 124.325 30.3025 124.269 30.3227C124.212 30.3421 124.162 30.3456 124.091 30.3456H121.018C120.973 30.3456 120.926 30.3439 120.867 30.3245C120.81 30.3052 120.758 30.2734 120.716 30.2312C120.673 30.1897 120.64 30.1395 120.619 30.0849C120.6 30.0303 120.592 29.9713 120.598 29.9132V19.3882H118.508C118.448 19.3935 118.386 19.3864 118.329 19.3671C118.272 19.3476 118.219 19.316 118.178 19.2736C118.134 19.2323 118.101 19.1821 118.08 19.1274C118.061 19.0729 118.053 19.0139 118.058 18.9556V16.7226C118.054 16.6644 118.061 16.6054 118.08 16.5508C118.102 16.4962 118.133 16.4468 118.178 16.4046C118.221 16.3632 118.273 16.3324 118.329 16.3112C118.388 16.2919 118.447 16.284 118.509 16.2892H120.599V12.4176C120.593 12.3595 120.601 12.3005 120.621 12.2458C120.642 12.1913 120.673 12.142 120.718 12.0996C120.76 12.0583 120.813 12.0274 120.869 12.0063C120.928 11.9868 120.986 11.979 121.048 11.9843H124.092C124.151 11.9798 124.211 11.9877 124.27 12.0063C124.326 12.0256 124.378 12.0574 124.421 12.0996C124.464 12.1411 124.497 12.1913 124.519 12.2441C124.538 12.2987 124.546 12.356 124.542 12.4142V16.2856H126.631C126.692 16.2813 126.754 16.2892 126.811 16.3094C126.87 16.3288 126.922 16.3587 126.967 16.4011L126.961 16.4028L126.966 16.4037Z" fill="white"/>
<path d="M139.201 16.957C139.191 17.0355 139.171 17.1132 139.141 17.1864L138.242 19.3111C138.143 19.5986 137.924 19.6948 137.584 19.5986C137.189 19.4752 136.774 19.4072 136.359 19.3975C135.442 19.3975 134.704 19.6852 134.148 20.2613C133.592 20.8374 133.313 21.5654 133.311 22.4433V29.9103C133.315 29.9676 133.307 30.0276 133.288 30.0824C133.267 30.1371 133.234 30.1865 133.19 30.2288C133.148 30.2703 133.096 30.3012 133.039 30.3224C132.98 30.3417 132.913 30.3478 132.86 30.3461H131.317H129.813C129.769 30.3478 129.69 30.3426 129.632 30.3224C129.573 30.303 129.523 30.2712 129.48 30.2288C129.439 30.1874 129.403 30.1371 129.384 30.0824C129.362 30.0276 129.355 29.9685 129.36 29.9103V16.7012C129.355 16.6428 129.363 16.5855 129.384 16.5308C129.403 16.4762 129.437 16.4267 129.48 16.3844C129.524 16.343 129.575 16.3121 129.632 16.2908C129.69 16.2714 129.75 16.2635 129.812 16.2688H132.712C132.97 16.2688 133.121 16.4135 133.163 16.7012L133.28 18.2523C134.157 16.7205 135.403 15.9547 137.016 15.9547C137.392 15.9512 137.767 16.0138 138.121 16.1408C138.434 16.2521 138.728 16.4126 138.988 16.6146C139.047 16.6535 139.095 16.7046 139.132 16.7637C139.169 16.8228 139.192 16.8891 139.199 16.9561L139.201 16.957Z" fill="white"/>
<path d="M155.117 16.3826C155.158 16.4239 155.188 16.4742 155.21 16.5289C155.229 16.5835 155.24 16.6408 155.236 16.6972V29.8932C155.241 29.9506 155.233 30.0105 155.213 30.0651C155.193 30.1198 155.16 30.1691 155.117 30.2115C155.074 30.2529 155.023 30.2838 154.967 30.3049C154.908 30.3244 154.828 30.3461 154.782 30.3461H152.048C151.788 30.3461 151.638 30.1824 151.599 29.895L151.48 28.6901C150.285 30.0299 148.816 30.6989 147.072 30.6989C145.794 30.713 144.538 30.3764 143.453 29.7285C142.374 29.077 141.5 28.1516 140.927 27.0541C140.329 25.8941 140.019 24.6187 140.019 23.3239C140.019 22.029 140.329 20.7536 140.927 19.5936C141.501 18.498 142.378 17.5751 143.46 16.9255C144.544 16.2759 145.8 15.9409 147.077 15.955C148.785 15.955 150.266 16.6435 151.515 18.0194L151.604 16.699C151.642 16.4116 151.793 16.267 152.052 16.267H154.792C154.852 16.2636 154.91 16.2732 154.967 16.2926C155.022 16.312 155.072 16.342 155.115 16.3808H155.117V16.3826ZM149.443 26.7104C150.013 26.3464 150.476 25.8475 150.786 25.2605C151.116 24.654 151.285 23.9788 151.278 23.2957C151.299 22.2802 150.917 21.2939 150.205 20.5429C149.879 20.1771 149.47 19.8836 149.013 19.6861C148.557 19.487 148.059 19.3891 147.557 19.397C146.466 19.397 145.567 19.7664 144.862 20.5007C144.156 21.2367 143.805 22.1692 143.809 23.2966C143.809 24.4257 144.161 25.3679 144.867 26.1234C145.572 26.8788 146.471 27.256 147.563 27.256C148.235 27.2621 148.891 27.0718 149.449 26.7104H149.443Z" fill="white"/>
<path d="M172.616 9.45672C172.657 9.49821 172.687 9.54853 172.708 9.60326C172.728 9.658 172.739 9.71539 172.734 9.77189V29.8925C172.74 29.9509 172.733 30.01 172.712 30.0648C172.692 30.1194 172.658 30.1689 172.616 30.2112C172.572 30.2528 172.521 30.2837 172.465 30.3049C172.407 30.3242 172.326 30.3459 172.281 30.3459H169.547C169.288 30.3459 169.14 30.1812 169.098 29.8934L168.98 28.6867C167.785 30.0285 166.317 30.6985 164.573 30.6985C163.295 30.7127 162.038 30.3772 160.952 29.7265C159.872 29.0742 158.997 28.1481 158.424 27.0472C157.827 25.8853 157.518 24.607 157.518 23.3101C157.518 22.0132 157.828 20.7349 158.424 19.5731C158.998 18.4758 159.874 17.5514 160.957 16.8999C162.042 16.2492 163.297 15.9111 164.574 15.9279C166.183 15.9279 167.59 16.5405 168.803 17.7651V9.76659C168.798 9.70832 168.806 9.65094 168.826 9.5962C168.846 9.54146 168.878 9.49203 168.922 9.44965C168.964 9.40816 169.016 9.37726 169.072 9.35607C169.128 9.33665 169.189 9.32871 169.25 9.334H172.286C172.346 9.33223 172.406 9.34194 172.462 9.36313C172.517 9.38432 172.57 9.41611 172.612 9.45672H172.616ZM166.944 26.7029C167.511 26.3365 167.975 25.8368 168.288 25.2498C168.616 24.6423 168.784 23.9652 168.78 23.281C168.799 22.264 168.415 21.2752 167.706 20.523C167.379 20.1549 166.97 19.8627 166.512 19.6632C166.054 19.4637 165.555 19.3657 165.052 19.3735C163.961 19.3735 163.06 19.7435 162.356 20.4798C161.651 21.2179 161.299 22.151 161.299 23.281C161.299 24.411 161.651 25.3565 162.356 26.1131C163.061 26.8698 163.961 27.2475 165.052 27.2475C165.724 27.2538 166.384 27.0631 166.942 26.7011L166.944 26.7029Z" fill="white"/>
<path d="M189.015 24.3146C188.875 24.5709 188.598 24.7014 188.18 24.7014H178.825C179.022 25.6359 179.481 26.3574 180.196 26.8656C180.911 27.3739 181.845 27.6267 182.996 27.6258C183.54 27.6301 184.083 27.5518 184.604 27.3968C185.139 27.225 185.64 26.9748 186.094 26.6516C186.186 26.5776 186.3 26.5361 186.422 26.5361C186.483 26.5361 186.545 26.5503 186.602 26.5767C186.658 26.6005 186.71 26.6357 186.751 26.6806L188.061 27.9138C188.104 27.949 188.14 27.994 188.166 28.0425C188.193 28.0918 188.209 28.1455 188.212 28.1993C188.206 28.2653 188.188 28.3296 188.158 28.3886C188.127 28.4476 188.084 28.5005 188.033 28.5428C187.326 29.2325 186.48 29.7786 185.549 30.1495C184.617 30.5194 183.619 30.707 182.611 30.6991C181.119 30.6991 179.786 30.3749 178.619 29.7293C177.474 29.1056 176.529 28.1869 175.893 27.0761C175.239 25.9301 174.905 24.6406 174.924 23.3343C174.909 22.0341 175.237 20.7516 175.879 19.6065C176.495 18.4886 177.419 17.5576 178.55 16.9128C179.681 16.268 180.973 15.9377 182.289 15.9553C183.659 15.9553 184.87 16.2759 185.923 16.9155C186.964 17.5426 187.807 18.4287 188.366 19.4823C188.945 20.5727 189.243 21.783 189.231 23.0075C189.227 23.6179 189.156 24.053 189.016 24.3129L189.015 24.3164V24.3146ZM179.972 19.972C179.327 20.5076 178.926 21.2625 178.767 22.2358H185.737C185.6 21.2607 185.217 20.5076 184.59 19.972C183.964 19.4365 183.15 19.1493 182.312 19.1687C181.456 19.1493 180.622 19.4347 179.972 19.972Z" fill="white"/>
<path d="M47.1857 9.45672C47.1446 9.49821 47.1146 9.54853 47.0936 9.60326C47.0735 9.658 47.0635 9.71539 47.0672 9.77189V29.8925C47.0617 29.9509 47.069 30.01 47.0899 30.0648C47.11 30.1194 47.1428 30.1689 47.1857 30.2112C47.2294 30.2528 47.2804 30.2837 47.3369 30.3049C47.3943 30.3242 47.4755 30.3459 47.5211 30.3459H50.255C50.5138 30.3459 50.6614 30.1812 50.7033 29.8934L50.8218 28.6867C52.0166 30.0285 53.4846 30.6985 55.229 30.6985C56.5066 30.7127 57.7633 30.3772 58.8487 29.7265C59.9296 29.0742 60.8044 28.1481 61.3776 27.0472C61.9746 25.8853 62.2844 24.607 62.2844 23.3101C62.2844 22.0132 61.9736 20.7349 61.3776 19.5731C60.8035 18.4758 59.9278 17.5514 58.8451 16.8999C57.7598 16.2492 56.5049 15.9111 55.2272 15.9279C53.6187 15.9279 52.2107 16.5405 50.9995 17.7651V9.76659C51.0041 9.70832 50.9959 9.65094 50.9758 9.5962C50.9549 9.54146 50.9229 9.49203 50.8801 9.44965C50.8372 9.40816 50.7853 9.37726 50.7298 9.35607C50.6732 9.33665 50.6122 9.32871 50.552 9.334H47.5155C47.4554 9.33223 47.3961 9.34194 47.3397 9.36313C47.2841 9.38432 47.2321 9.41611 47.1892 9.45672H47.1857ZM52.8577 26.7029C52.29 26.3365 51.827 25.8368 51.5135 25.2498C51.1863 24.6423 51.0178 23.9652 51.0223 23.281C51.0023 22.264 51.3868 21.2752 52.0949 20.523C52.4221 20.1549 52.8313 19.8627 53.2897 19.6632C53.7481 19.4637 54.2466 19.3657 54.7496 19.3735C55.8414 19.3735 56.7418 19.7435 57.4453 20.4798C58.1507 21.2179 58.5025 22.151 58.5025 23.281C58.5025 24.411 58.1507 25.3565 57.4453 26.1131C56.74 26.8698 55.8414 27.2475 54.7496 27.2475C54.0771 27.2538 53.4172 27.0631 52.8595 26.7011L52.8577 26.7029Z" fill="white"/>
</g>
<defs>
<clipPath id="clip0_403_241">
<rect width="189.231" height="40" fill="white"/>
</clipPath>
</defs>
</svg>
