<svg width="182" height="31" viewBox="0 0 182 31" fill="none" xmlns="http://www.w3.org/2000/svg">
<g opacity="0.5">
<path fill-rule="evenodd" clip-rule="evenodd" d="M16.1883 1.65161C19.9732 1.65161 23.4001 3.2051 25.8805 5.71654C28.3315 8.19829 29.8585 11.6157 29.8943 15.3938V15.4016L29.8947 15.4532L29.8951 15.5296L29.8943 15.6575V15.6658C29.8585 19.4438 28.3315 22.8609 25.8805 25.3426C23.4001 27.854 19.9736 29.4075 16.1883 29.4075C12.4035 29.4075 8.97652 27.854 6.49613 25.3426C4.01574 22.8312 2.48145 19.3613 2.48145 15.5291C2.48145 11.6969 4.01574 8.22754 6.49613 5.7161C8.97652 3.20467 12.4035 1.65161 16.1883 1.65161ZM24.0663 9.62777C24.5859 9.62777 25.09 9.69717 25.57 9.82599C24.1564 8.43712 22.2288 7.58178 20.1034 7.58178C17.9356 7.58178 15.9731 8.47117 14.5531 9.90943C13.1327 11.3477 12.2542 13.3347 12.2542 15.5296C12.2542 17.7244 13.1327 19.7115 14.5531 21.1493C15.9736 22.5875 17.936 23.4769 20.1034 23.4769C22.2288 23.4769 24.1569 22.6216 25.57 21.2327C25.0905 21.362 24.5863 21.4309 24.0667 21.4309C22.4575 21.4309 20.9999 20.7703 19.9455 19.7023C18.8908 18.6344 18.2384 17.1586 18.2384 15.5291C18.2384 13.8997 18.8908 12.4239 19.9455 11.3559C20.9994 10.2888 22.4565 9.62777 24.0663 9.62777ZM26.8141 12.7474C26.1107 12.0358 25.1392 11.5951 24.0659 11.5951C22.9926 11.5951 22.021 12.0358 21.3177 12.7474C20.6144 13.4595 20.1797 14.4433 20.1797 15.53C20.1797 16.6167 20.6148 17.6004 21.3177 18.3126C22.021 19.0243 22.9926 19.4648 24.0659 19.4648C25.1392 19.4648 26.1107 19.0243 26.8141 18.3126C27.517 17.6004 27.9521 16.6167 27.9521 15.53L27.9516 15.4794C27.9387 14.4123 27.5062 13.4482 26.8141 12.7474ZM20.1029 5.61481C21.3237 5.61481 22.4919 5.84098 23.5699 6.25446C21.5514 4.60578 18.9835 3.61858 16.1883 3.61858C12.9399 3.61858 9.99853 4.95202 7.86957 7.10717C5.74106 9.26231 4.42411 12.2405 4.42411 15.5296C4.42411 18.8191 5.74063 21.7968 7.86957 23.9524C9.99853 26.1075 12.9394 27.441 16.1883 27.441C18.9839 27.441 21.5514 26.4538 23.5699 24.8047C22.4919 25.2182 21.3237 25.4443 20.1029 25.4443C17.3992 25.4443 14.9507 24.3344 13.1792 22.5404C11.4073 20.7463 10.3112 18.2676 10.3112 15.53C10.3112 12.7924 11.4073 10.3133 13.1792 8.51921C14.9507 6.72469 17.3992 5.61481 20.1029 5.61481Z" fill="white"/>
<path fill-rule="evenodd" clip-rule="evenodd" d="M117.35 25.6485C115.277 25.6485 113.542 24.9425 112.146 23.5296C110.77 22.0988 110.081 20.3611 110.081 18.3164C110.081 16.235 110.77 14.4972 112.146 13.1031C113.542 11.6907 115.276 10.9843 117.35 10.9843C118.69 10.9843 119.911 11.3095 121.012 11.9601C122.113 12.6106 122.939 13.4843 123.49 14.5807L120.93 16.0861C120.617 15.4173 120.145 14.892 119.512 14.5108C118.878 14.1296 118.149 13.9392 117.323 13.9392C116.112 13.9392 115.093 14.3576 114.267 15.1937C113.459 16.0485 113.055 17.0894 113.055 18.3159C113.055 19.5424 113.458 20.5833 114.267 21.4382C115.093 22.2748 116.112 22.6926 117.323 22.6926C118.131 22.6926 118.86 22.5022 119.512 22.1211C120.163 21.7403 120.654 21.2151 120.985 20.5462L123.546 22.0237C122.958 23.1388 122.109 24.0216 120.998 24.6722C119.888 25.3236 118.672 25.6485 117.35 25.6485Z" fill="white"/>
<path d="M107.791 11.3474H104.817V25.2866H107.791V11.3474Z" fill="white"/>
<path fill-rule="evenodd" clip-rule="evenodd" d="M107.627 8.69873C107.259 9.0703 106.819 9.2563 106.305 9.2563C105.792 9.2563 105.342 9.0703 104.956 8.69873C104.589 8.30841 104.405 7.85301 104.405 7.33256C104.405 6.81211 104.589 6.36632 104.956 5.99432C105.323 5.60398 105.773 5.40881 106.305 5.40881C106.838 5.40881 107.288 5.60398 107.655 5.99432C108.021 6.36589 108.205 6.81211 108.205 7.33256C108.205 7.85301 108.012 8.30841 107.627 8.69873Z" fill="white"/>
<path fill-rule="evenodd" clip-rule="evenodd" d="M96.8015 10.9858C98.3612 10.9858 99.6191 11.4967 100.573 12.5192C101.528 13.5414 102.005 14.9167 102.005 16.6453V25.2873H99.0314V16.8404C99.0314 15.8926 98.7924 15.1491 98.3153 14.6103C97.8382 14.071 97.1867 13.8016 96.3609 13.8016C95.4246 13.8016 94.6906 14.1129 94.1582 14.7355C93.6258 15.3581 93.3596 16.2733 93.3596 17.4815V25.2873H90.3855V16.8404C90.3855 15.8739 90.161 15.1259 89.7111 14.5962C89.2612 14.0666 88.6234 13.8016 87.7976 13.8016C86.8799 13.8016 86.1409 14.1177 85.5812 14.7495C85.0211 15.3813 84.7408 16.2921 84.7408 17.4815V25.2873H81.7676V11.3487H84.7408V13.0213C85.6221 11.6648 86.9343 10.9863 88.6786 10.9863C90.44 10.9863 91.7437 11.7207 92.5882 13.1886C93.488 11.7203 94.8922 10.9858 96.8015 10.9858Z" fill="white"/>
<path d="M61.7413 5.77209H58.7676V25.2868H61.7413V5.77209Z" fill="white"/>
<path fill-rule="evenodd" clip-rule="evenodd" d="M49.2915 15.1953C49.2915 15.6228 49.5119 15.9712 49.9522 16.241C50.3929 16.5104 51.0354 16.7658 51.8792 17.0077C52.5218 17.1561 53.0816 17.3142 53.5589 17.4815C54.0363 17.6487 54.5408 17.8949 55.0733 18.2202C55.6059 18.5454 56.0143 18.9729 56.2984 19.5026C56.5831 20.0322 56.7159 20.65 56.6973 21.3565C56.6973 22.6947 56.1833 23.7448 55.1558 24.5062C54.1277 25.2681 52.8521 25.6493 51.3287 25.6493C49.9703 25.6493 48.8046 25.3611 47.8318 24.7852C46.859 24.2093 46.1522 23.4099 45.7119 22.3877L48.2725 20.8822C48.7313 22.2205 49.7499 22.8894 51.3287 22.8894C52.8888 22.8894 53.6689 22.369 53.6689 21.328C53.6689 20.5661 52.7969 19.9714 51.0531 19.544C50.3925 19.3769 49.837 19.2096 49.3872 19.0424C48.9375 18.8752 48.442 18.6333 47.9004 18.3176C47.3588 18.0015 46.9457 17.5836 46.6615 17.0631C46.3769 16.5427 46.2436 15.9389 46.2622 15.2512C46.2622 13.9688 46.7395 12.9375 47.6938 12.1569C48.6667 11.3766 49.8689 10.9858 51.301 10.9858C52.439 10.9858 53.4532 11.2412 54.3433 11.7526C55.2337 12.2634 55.9173 12.9742 56.3946 13.885L53.8892 15.3066C53.4304 14.2474 52.5675 13.7178 51.301 13.7178C50.7137 13.7178 50.2316 13.8479 49.8556 14.1081C49.4796 14.3684 49.2915 14.7307 49.2915 15.1953Z" fill="white"/>
<path d="M43.3393 5.77209H40.1729V25.2868H43.3393V5.77209Z" fill="white"/>
<path fill-rule="evenodd" clip-rule="evenodd" d="M75.7057 13.3279V11.3487H78.6794V25.2878H75.7057V23.2806C74.5863 24.8603 72.98 25.6501 70.8873 25.6501C68.9968 25.6501 67.3814 24.9441 66.0412 23.5313C64.7013 22.1188 64.0312 20.381 64.0312 18.318C64.0312 16.255 64.7013 14.5173 66.0412 13.1048C67.3814 11.6923 68.9964 10.9858 70.8873 10.9858C72.98 10.9858 74.5859 11.7665 75.7057 13.3279ZM68.2443 21.5241C69.0705 22.3603 70.1076 22.7785 71.3556 22.7785C72.6035 22.7785 73.641 22.3603 74.4668 21.5241C75.2931 20.6692 75.7057 19.6004 75.7057 18.318C75.7057 17.0357 75.2926 15.9764 74.4668 15.1398C73.641 14.2849 72.6035 13.8575 71.3556 13.8575C70.1072 13.8575 69.0705 14.2849 68.2443 15.1398C67.4185 15.9764 67.0054 17.0352 67.0054 18.318C67.0049 19.5816 67.4181 20.6504 68.2443 21.5241Z" fill="white"/>
<path fill-rule="evenodd" clip-rule="evenodd" d="M156.65 23.5296C155.255 24.9421 153.539 25.6485 151.501 25.6485C149.464 25.6485 147.747 24.9425 146.353 23.5296C144.939 22.0988 144.232 20.3611 144.232 18.3164C144.232 16.2716 144.939 14.5344 146.353 13.1031C147.747 11.6907 149.464 10.9843 151.501 10.9843C153.539 10.9843 155.255 11.6902 156.65 13.1031C158.064 14.5339 158.77 16.2721 158.77 18.3164C158.77 20.3606 158.064 22.0988 156.65 23.5296ZM147.206 18.3168C147.206 19.5808 147.619 20.6304 148.445 21.467C149.271 22.3031 150.289 22.7215 151.501 22.7215C152.712 22.7215 153.731 22.3031 154.557 21.467C155.383 20.6304 155.796 19.5808 155.796 18.3168C155.796 17.0532 155.383 16.0032 154.557 15.1666C153.731 14.33 152.712 13.9122 151.501 13.9122C150.289 13.9122 149.271 14.3304 148.445 15.1666C147.619 16.0027 147.206 17.0528 147.206 18.3168Z" fill="white"/>
<path fill-rule="evenodd" clip-rule="evenodd" d="M174.364 10.9858C175.961 10.9858 177.241 11.5015 178.205 12.5333C179.169 13.565 179.65 14.9635 179.65 16.7291V25.2878H176.677V17.0357C176.677 15.9952 176.402 15.1957 175.85 14.6382C175.3 14.0806 174.548 13.802 173.592 13.802C172.51 13.802 171.656 14.1413 171.033 14.8193C170.408 15.4979 170.096 16.4969 170.096 17.8163V25.2878H167.122V11.3487H170.096V13.1327C171.014 11.7015 172.437 10.9858 174.364 10.9858Z" fill="white"/>
<path d="M164.061 11.3474H161.088V25.2866H164.061V11.3474Z" fill="white"/>
<path fill-rule="evenodd" clip-rule="evenodd" d="M163.896 8.69873C163.53 9.0703 163.088 9.2563 162.575 9.2563C162.061 9.2563 161.611 9.0703 161.225 8.69873C160.859 8.30841 160.675 7.85301 160.675 7.33256C160.675 6.81211 160.859 6.36632 161.225 5.99432C161.592 5.60398 162.042 5.40881 162.575 5.40881C163.107 5.40881 163.556 5.60398 163.924 5.99432C164.291 6.36589 164.475 6.81211 164.475 7.33256C164.475 7.85301 164.282 8.30841 163.896 8.69873Z" fill="white"/>
<path fill-rule="evenodd" clip-rule="evenodd" d="M134.701 25.6496C131.801 25.6496 129.396 24.6834 127.487 22.7505C125.578 20.7804 124.624 18.3738 124.624 15.53C124.624 12.6681 125.578 10.2705 127.487 8.33762C129.377 6.38637 131.782 5.41052 134.701 5.41052C136.445 5.41052 138.055 5.82881 139.534 6.66494C141.011 7.5015 142.163 8.63495 142.989 10.0662L140.235 11.683C139.722 10.7168 138.974 9.95004 137.992 9.38291C137.009 8.81613 135.912 8.53279 134.701 8.53279C132.663 8.53279 130.993 9.19252 129.689 10.5124C128.423 11.8136 127.79 13.4863 127.79 15.5305C127.79 17.5748 128.423 19.2475 129.689 20.5486C130.993 21.868 132.663 22.5282 134.701 22.5282C135.912 22.5282 137.014 22.2444 138.005 21.6777C138.996 21.1109 139.74 20.3443 140.235 19.378L142.989 20.9668C142.2 22.3793 141.052 23.5224 139.547 24.3956C138.097 25.2318 136.481 25.6496 134.701 25.6496Z" fill="white"/>
</g>
</svg>
