<svg width="134" height="31" viewBox="0 0 134 31" fill="none" xmlns="http://www.w3.org/2000/svg">
<g opacity="0.5" clip-path="url(#clip0_402_131)">
<path d="M48.9871 3.45532C55.2691 3.45532 58.4083 7.06191 58.4083 11.4132C58.4083 14.5737 56.6487 17.7682 52.4645 18.8835L58.7047 29.4046H52.6507L46.8969 19.2804H44.4304V29.3895H39.1973V3.45532H48.9871ZM48.8009 7.76886H44.4304V15.3903H48.8009C51.7158 15.3903 53.0269 13.8781 53.0269 11.5229C53.0269 9.16764 51.7158 7.76886 48.8009 7.76886Z" fill="white"/>
<path d="M71.261 8.47583C74.5902 8.47583 76.8666 10.0372 78.1018 11.746V8.80851H83.3729V29.4046H78.1018V26.3802C76.8666 28.1646 74.5142 29.726 71.223 29.726C65.9937 29.726 61.8057 25.4502 61.8057 19.0196C61.8057 12.589 65.9937 8.47583 71.261 8.47583ZM72.6064 13.0464C69.8055 13.0464 67.1528 15.1295 67.1528 19.0347C67.1528 22.94 69.8131 25.1667 72.6064 25.1667C75.4871 25.1667 78.1018 23.0118 78.1018 19.1179C78.1018 15.224 75.4871 13.0464 72.6064 13.0464Z" fill="white"/>
<path d="M89.3092 13.0842H86.8428V8.8085H89.3092V3.71619H94.5766V8.8085H99.2131V13.0842H94.5766V23.0609C94.5766 24.437 95.139 25.0306 96.7846 25.0306H99.2131V29.4159H95.9219C91.9619 29.4159 89.3092 27.745 89.3092 23.0231V13.0842Z" fill="white"/>
<path d="M108.224 8.80859H102.991V29.4047H108.224V8.80859Z" fill="white"/>
<path d="M122.575 29.7411C116.593 29.7411 112.07 25.5825 112.07 19.1066C112.07 12.6306 116.745 8.47583 122.711 8.47583C128.678 8.47583 133.353 12.6003 133.353 19.1066C133.353 25.6128 128.591 29.7411 122.575 29.7411ZM122.575 25.2045C125.341 25.2045 127.994 23.1971 127.994 19.1066C127.994 15.0161 125.414 13.0124 122.647 13.0124C119.88 13.0124 117.379 14.982 117.379 19.1066C117.379 23.2311 119.77 25.2045 122.575 25.2045Z" fill="white"/>
<path d="M31.3682 12.3848C31.3391 15.5973 30.0358 18.6684 27.7419 20.9298C25.448 23.1912 22.349 24.4598 19.1195 24.4597H12.0546C11.221 24.4597 10.4216 24.1303 9.83216 23.544C9.24276 22.9577 8.91163 22.1624 8.91163 21.3333C8.91163 20.5041 9.24276 19.7089 9.83216 19.1225C10.4216 18.5362 11.221 18.2068 12.0546 18.2068H19.1195C20.0288 18.2089 20.9262 18.0019 21.7418 17.6019C22.7673 17.1018 23.6272 16.3195 24.2193 15.3479C24.8114 14.3763 25.1109 13.2561 25.0823 12.1202C25.0212 10.5604 24.3524 9.08546 23.2176 8.00738C22.0828 6.92926 20.5708 6.33262 19.0017 6.34362H7.7373V0.0906982H18.9257C25.7246 0.0906982 31.429 5.62155 31.3682 12.3848Z" fill="url(#paint0_linear_402_131)"/>
<path d="M25.0828 12.2677C25.0818 13.3773 24.7684 14.4645 24.1779 15.406C23.5875 16.3475 22.7437 17.1056 21.7422 17.5944C20.9267 17.9944 20.0293 18.2014 19.12 18.1993H12.055C11.2215 18.1993 10.4221 18.5287 9.83264 19.115C9.24324 19.7013 8.91211 20.4966 8.91211 21.3257C8.91211 21.7363 8.9934 22.1429 9.15134 22.5222C9.30929 22.9015 9.54081 23.2462 9.83264 23.5365C10.1245 23.8268 10.471 24.0571 10.8523 24.2142C11.2336 24.3713 11.6423 24.4522 12.055 24.4522H19.12C22.3659 24.4522 25.4791 23.1706 27.7757 20.8888C30.0724 18.607 31.3646 15.5117 31.3687 12.2828L25.0828 12.2677Z" fill="url(#paint1_linear_402_131)"/>
<path d="M30.3611 30.69H22.8477L18.7433 24.4635L14.6274 18.2068L7.7373 7.75375V0.0906982H10.2114L14.3272 6.34362L21.7418 17.5981L25.2001 22.8492L30.3611 30.69Z" fill="url(#paint2_linear_402_131)"/>
<path d="M105.606 6.50243C107.38 6.50243 108.817 5.07219 108.817 3.30791C108.817 1.54363 107.38 0.113403 105.606 0.113403C103.832 0.113403 102.395 1.54363 102.395 3.30791C102.395 5.07219 103.832 6.50243 105.606 6.50243Z" fill="url(#paint3_linear_402_131)"/>
<path d="M3.58423 24.7773C5.49632 24.7773 7.04639 23.2354 7.04639 21.3333C7.04639 19.4312 5.49632 17.8893 3.58423 17.8893C1.67213 17.8893 0.12207 19.4312 0.12207 21.3333C0.12207 23.2354 1.67213 24.7773 3.58423 24.7773Z" fill="url(#paint4_linear_402_131)"/>
</g>
<defs>
<linearGradient id="paint0_linear_402_131" x1="27.3778" y1="23.9494" x2="11.1267" y2="4.16541" gradientUnits="userSpaceOnUse">
<stop stop-color="#B9B1B1"/>
<stop offset="0.51" stop-color="#D1D1D1"/>
<stop offset="0.57" stop-color="#DDDDDD"/>
<stop offset="1" stop-color="#EDEDED"/>
</linearGradient>
<linearGradient id="paint1_linear_402_131" x1="11.9524" y1="23.6356" x2="28.4842" y2="15.4425" gradientUnits="userSpaceOnUse">
<stop stop-color="white" stop-opacity="0"/>
<stop offset="0.54" stop-color="#231F20" stop-opacity="0.4"/>
<stop offset="1" stop-color="white" stop-opacity="0"/>
</linearGradient>
<linearGradient id="paint2_linear_402_131" x1="4715.3" y1="6451.93" x2="3410.79" y2="5284.1" gradientUnits="userSpaceOnUse">
<stop stop-color="#B9B1B1"/>
<stop offset="0.51" stop-color="#D1D1D1"/>
<stop offset="0.57" stop-color="#DDDDDD"/>
<stop offset="1" stop-color="#EDEDED"/>
</linearGradient>
<linearGradient id="paint3_linear_402_131" x1="2765.36" y1="1042.16" x2="2834.77" y2="926.838" gradientUnits="userSpaceOnUse">
<stop stop-color="#B9B1B1"/>
<stop offset="0.51" stop-color="#D1D1D1"/>
<stop offset="0.57" stop-color="#DDDDDD"/>
<stop offset="1" stop-color="#EDEDED"/>
</linearGradient>
<linearGradient id="paint4_linear_402_131" x1="1296.91" y1="1530.3" x2="886.262" y2="1303.65" gradientUnits="userSpaceOnUse">
<stop stop-color="#B9B1B1"/>
<stop offset="0.51" stop-color="#D1D1D1"/>
<stop offset="0.57" stop-color="#DDDDDD"/>
<stop offset="1" stop-color="#EDEDED"/>
</linearGradient>
<clipPath id="clip0_402_131">
<rect width="133.394" height="31" fill="white"/>
</clipPath>
</defs>
</svg>
